# xmcd
# 
# Track frame offsets:
#     150
#     36552
#     74137
#     115177
#     149827
#     160272
#     192195
#     226967
#     256480
# 
# Disc length: 3809
# 
# Revision: 4
# Processed by: cddbd v1.5.2PL0 Copyright (c) Steve Scherf et al.
# Submitted via: BonkEnc v1.0.8
# 
DISCID=8d0edf09
DTITLE=Dino Saluzzi - Responsorium
DYEAR=2001
DGENRE=Contemporary Jazz
TTITLE0=A mi hermano Celso
TTITLE1=Monica
TTITLE2=Responso por la muerte de Cruz
TTITLE3=Dele..., Don!!
TTITLE4=Reprise: Los hijos de Fierro
TTITLE5=La pequena historia de ...!
TTITLE6=Cuchara
TTITLE7=Vienen del sur los recuerdos.
TTITLE8=Pampeana "Mapu"
EXTD=YEAR: 2003
EXTT0=
EXTT1=
EXTT2=
EXTT3=
EXTT4=
EXTT5=
EXTT6=
EXTT7=
EXTT8=
PLAYORDER=
